solid unnamed
facet normal -1 0 0
    outer loop
        vertex -0.05 -0.025 0.03
        vertex -0.05 0.025 0.03
        vertex -0.05 -0.025 -0.03
    endloop
endfacet
facet normal -1 0 -0
    outer loop
        vertex -0.05 0.025 0.03
        vertex -0.05 0.025 -0.03
        vertex -0.05 -0.025 -0.03
    endloop
endfacet
facet normal 1 -0 0
    outer loop
        vertex 0.05 -0.025 0.03
        vertex 0.05 -0.025 -0.03
        vertex 0.05 0.025 0.03
    endloop
endfacet
facet normal 1 0 0
    outer loop
        vertex 0.05 0.025 0.03
        vertex 0.05 -0.025 -0.03
        vertex 0.05 0.025 -0.03
    endloop
endfacet
facet normal 0 0 -1
    outer loop
        vertex 0.05 -0.025 -0.03
        vertex -0.05 0.025 -0.03
        vertex 0.05 0.025 -0.03
    endloop
endfacet
facet normal 0 0 -1
    outer loop
        vertex -0.05 -0.025 -0.03
        vertex -0.05 0.025 -0.03
        vertex 0.05 -0.025 -0.03
    endloop
endfacet
facet normal 0 -0 1
    outer loop
        vertex 0.05 -0.025 0.03
        vertex 0.05 0.025 0.03
        vertex -0.05 0.025 0.03
    endloop
endfacet
facet normal 0 0 1
    outer loop
        vertex -0.05 -0.025 0.03
        vertex 0.05 -0.025 0.03
        vertex -0.05 0.025 0.03
    endloop
endfacet
facet normal 0 1 0
    outer loop
        vertex 0.05 0.025 0.03
        vertex -0.05 0.025 -0.03
        vertex -0.05 0.025 0.03
    endloop
endfacet
facet normal 0 1 -0
    outer loop
        vertex 0.05 0.025 -0.03
        vertex -0.05 0.025 -0.03
        vertex 0.05 0.025 0.03
    endloop
endfacet
facet normal -0 -1 0
    outer loop
        vertex 0.05 -0.025 0.03
        vertex -0.05 -0.025 0.03
        vertex -0.05 -0.025 -0.03
    endloop
endfacet
facet normal 0 -1 0
    outer loop
        vertex 0.05 -0.025 -0.03
        vertex 0.05 -0.025 0.03
        vertex -0.05 -0.025 -0.03
    endloop
endfacet
facet normal 0 0 1
    outer loop
        vertex 0.048 0.023 -0.028
        vertex -0.048 0.023 -0.028
        vertex 0.048 -0.023 -0.028
    endloop
endfacet
facet normal 0 0 1
    outer loop
        vertex 0.048 -0.023 -0.028
        vertex -0.048 0.023 -0.028
        vertex -0.048 -0.023 -0.028
    endloop
endfacet
facet normal 0 -1 0
    outer loop
        vertex 0.048 0.023 -0.028
        vertex 0.048 0.023 0.028
        vertex -0.048 0.023 -0.028
    endloop
endfacet
facet normal 0 -1 0
    outer loop
        vertex -0.048 0.023 -0.028
        vertex 0.048 0.023 0.028
        vertex -0.048 0.023 0.028
    endloop
endfacet
facet normal 0 0 -1
    outer loop
        vertex 0.048 -0.023 0.028
        vertex -0.048 0.023 0.028
        vertex 0.048 0.023 0.028
    endloop
endfacet
facet normal 0 0 -1
    outer loop
        vertex -0.048 -0.023 0.028
        vertex -0.048 0.023 0.028
        vertex 0.048 -0.023 0.028
    endloop
endfacet
facet normal 1 0 0
    outer loop
        vertex -0.048 -0.023 -0.028
        vertex -0.048 0.023 -0.028
        vertex -0.048 0.023 0.028
    endloop
endfacet
facet normal 1 -0 0
    outer loop
        vertex -0.048 -0.023 0.028
        vertex -0.048 -0.023 -0.028
        vertex -0.048 0.023 0.028
    endloop
endfacet
facet normal -1 0 0
    outer loop
        vertex 0.048 -0.023 -0.028
        vertex 0.048 0.023 0.028
        vertex 0.048 0.023 -0.028
    endloop
endfacet
facet normal -1 0 0
    outer loop
        vertex 0.048 -0.023 0.028
        vertex 0.048 0.023 0.028
        vertex 0.048 -0.023 -0.028
    endloop
endfacet
facet normal 0 1 -0
    outer loop
        vertex 0.048 -0.023 -0.028
        vertex -0.048 -0.023 -0.028
        vertex 0.048 -0.023 0.028
    endloop
endfacet
facet normal 0 1 0
    outer loop
        vertex -0.048 -0.023 -0.028
        vertex -0.048 -0.023 0.028
        vertex 0.048 -0.023 0.028
    endloop
endfacet
endsolid unnamed
