solid unnamed
facet normal -1 0 0
    outer loop
        vertex -0.1 -0.025 0.05
        vertex -0.1 0.025 0.05
        vertex -0.1 -0.025 -0.05
    endloop
endfacet
facet normal -1 0 -0
    outer loop
        vertex -0.1 0.025 0.05
        vertex -0.1 0.025 -0.05
        vertex -0.1 -0.025 -0.05
    endloop
endfacet
facet normal 1 -0 0
    outer loop
        vertex 0.1 -0.025 0.05
        vertex 0.1 -0.025 -0.05
        vertex 0.1 0.025 0.05
    endloop
endfacet
facet normal 1 0 0
    outer loop
        vertex 0.1 0.025 0.05
        vertex 0.1 -0.025 -0.05
        vertex 0.1 0.025 -0.05
    endloop
endfacet
facet normal 0 0 -1
    outer loop
        vertex 0.1 -0.025 -0.05
        vertex -0.1 0.025 -0.05
        vertex 0.1 0.025 -0.05
    endloop
endfacet
facet normal 0 0 -1
    outer loop
        vertex -0.1 -0.025 -0.05
        vertex -0.1 0.025 -0.05
        vertex 0.1 -0.025 -0.05
    endloop
endfacet
facet normal 0 -0 1
    outer loop
        vertex 0.1 -0.025 0.05
        vertex 0.1 0.025 0.05
        vertex -0.1 0.025 0.05
    endloop
endfacet
facet normal 0 0 1
    outer loop
        vertex -0.1 -0.025 0.05
        vertex 0.1 -0.025 0.05
        vertex -0.1 0.025 0.05
    endloop
endfacet
facet normal 0 1 0
    outer loop
        vertex 0.1 0.025 0.05
        vertex -0.1 0.025 -0.05
        vertex -0.1 0.025 0.05
    endloop
endfacet
facet normal 0 1 -0
    outer loop
        vertex 0.1 0.025 -0.05
        vertex -0.1 0.025 -0.05
        vertex 0.1 0.025 0.05
    endloop
endfacet
facet normal -0 -1 0
    outer loop
        vertex 0.1 -0.025 0.05
        vertex -0.1 -0.025 0.05
        vertex -0.1 -0.025 -0.05
    endloop
endfacet
facet normal 0 -1 0
    outer loop
        vertex 0.1 -0.025 -0.05
        vertex 0.1 -0.025 0.05
        vertex -0.1 -0.025 -0.05
    endloop
endfacet
endsolid unnamed
